<svg width="21" height="20" viewBox="0 0 21 20" fill="none" xmlns="http://www.w3.org/2000/svg">
<path d="M15.6666 12.5001L16.1872 11.8494C16.9212 10.9319 17.2881 10.4732 17.3554 10.0985C17.4698 9.46177 17.163 8.82343 16.5943 8.51493C16.2597 8.33341 15.6722 8.33341 14.4974 8.33341V8.33341C13.879 8.33341 13.5699 8.33341 13.3222 8.24365C12.904 8.09208 12.5746 7.76272 12.4231 7.34452C12.3333 7.09685 12.3333 6.78768 12.3333 6.16935V5.95294C12.3333 3.90091 12.3333 2.87489 11.957 2.44934C11.6121 2.05922 11.0895 1.87591 10.5765 1.96507C10.0168 2.06232 9.37589 2.86351 8.09399 4.46588L7.66663 5.00008" stroke="#FFBE00" stroke-width="1.5" stroke-linecap="round" stroke-linejoin="round"/>
<path d="M15.6666 12.5L13.2393 15.5342C11.9574 17.1366 11.3164 17.9378 10.7568 18.035C10.2437 18.1242 9.72116 17.9409 9.37623 17.5507C8.99998 17.1252 8.99998 16.0992 8.99998 14.0471V13.8307C8.99998 13.2124 8.99998 12.9032 8.91022 12.6556C8.75865 12.2374 8.42929 11.908 8.01109 11.7564C7.76342 11.6667 7.45425 11.6667 6.83592 11.6667V11.6667C5.66103 11.6667 5.07359 11.6667 4.73899 11.4851C4.17032 11.1767 3.86352 10.5383 3.97787 9.90154C4.04515 9.52687 4.41212 9.06816 5.14607 8.15072L7.66665 5" stroke="#FFBE00" stroke-width="1.5" stroke-linecap="round" stroke-linejoin="round"/>
</svg>
