<svg width="20" height="20" viewBox="0 0 20 20" fill="none" xmlns="http://www.w3.org/2000/svg">
<path d="M8.88074 15.8333C10.8509 17.0559 13.1691 17.8615 15.7647 18.1798C16.1424 18.2261 16.3313 18.2493 16.5735 18.2199C17.3349 18.1275 18.0894 17.4598 18.2738 16.7153C18.3325 16.4785 18.3325 16.2304 18.3325 15.7343V15.7343C18.3325 15.3253 18.3325 15.1208 18.2965 14.9335C18.175 14.3027 17.7581 13.7687 17.1756 13.4979C17.0027 13.4175 16.7961 13.3659 16.383 13.2626L16.0782 13.1864C15.1965 12.966 14.7557 12.8558 14.3209 12.8435C13.7126 12.8262 13.1084 12.948 12.5543 13.1995C12.1582 13.3793 11.7945 13.6516 11.067 14.1963L8.88074 15.8333ZM8.88074 15.8333C8.09093 15.3433 7.35703 14.7862 6.68359 14.1667" stroke="#FF4A00" stroke-width="1.5" stroke-linecap="round" stroke-linejoin="round"/>
<path d="M3.99345 10.8333C2.86751 8.92579 2.12258 6.70583 1.81953 4.23433C1.77322 3.85669 1.75007 3.66787 1.77948 3.42563C1.87191 2.6643 2.53959 1.90975 3.28401 1.72535C3.52087 1.66667 3.76052 1.66667 4.2398 1.66667V1.66667C4.66564 1.66667 4.87855 1.66667 5.06587 1.70273C5.6966 1.82415 6.23063 2.24111 6.5014 2.82356C6.58182 2.99654 6.63346 3.2031 6.73674 3.61622L6.79085 3.83269C6.99869 4.66403 7.10261 5.07971 7.11972 5.48666C7.15007 6.20847 6.98437 6.92502 6.64021 7.56022C6.44617 7.91834 6.17031 8.24619 5.6186 8.9019L3.99345 10.8333ZM3.99345 10.8333C4.73201 12.0846 5.6345 13.2014 6.68376 14.1667" stroke="#1C1B18" stroke-width="1.5" stroke-linecap="round" stroke-linejoin="round"/>
</svg>
