<svg xmlns="http://www.w3.org/2000/svg" width="100%" height="100%" viewBox="0 0 39.38 33.045"><g transform="translate(-43.322 -70.537)"><g transform="translate(43.322 70.537)"><path d="M73.143,101.139l-.025-.017-11.8-7.657q1.047-1.054,2.09-2.038l3.838,2.5-1.7-4.441q1.188-1.04,2.374-1.983Z" transform="translate(-40.73 -68.094)" fill="#003057"/><path d="M73.794,80.947c-.269.106-.542.216-.818.332a38.194,38.194,0,0,0-4.658,2.373H64.972l-1.888-4.927L61.2,83.651H47.492l-4.17-2.7H59.1l3.989-10.41,3.985,10.41Z" transform="translate(-43.322 -70.537)" fill="#003057"/><g transform="translate(6.23 10.19)"><path d="M81.938,79.484c-1.724.713-12,3.714-25.746,20.038-.151.18-2.412,2.709-5.128,2.709h-1.7v0h-.6c2.088-5.439,4.367-11.313,4.86-12.573a2.669,2.669,0,0,0-.92-3.318l-.141-.094h2.888a2.137,2.137,0,0,1,2.147,1.9c0,.049.007.1.008.149a2.868,2.868,0,0,1-.194,1.109c-.654,1.749-1.523,4.021-2.09,5.5.177-.206.416-.477.642-.71A51.85,51.85,0,0,1,72.9,81.691a26.13,26.13,0,0,1,8.5-2.247A3.023,3.023,0,0,1,81.938,79.484Z" transform="translate(-48.768 -79.444)" fill="#ff8f00"/></g></g></g></svg>