<svg width="533" height="729" viewBox="0 0 533 729" fill="none" xmlns="http://www.w3.org/2000/svg">
<g filter="url(#filter0_d_18_2838)">
<path d="M584.984 546.92L423.266 546.92L391.822 633.207C387.505 645.053 376.243 652.935 363.635 652.935L89.2806 652.935C59.9833 652.935 33.7852 671.18 23.6249 698.659L0.999981 759.849L584.984 759.849" stroke="url(#paint0_linear_18_2838)" stroke-width="1.25"/>
<path d="M462.25 438.335L388.686 438.337C376.075 438.337 364.81 446.225 360.496 458.076L266.664 715.878C256.644 743.408 230.539 761.786 201.242 761.935L136.004 762.267L335.738 213.502" stroke="url(#paint1_linear_18_2838)" stroke-width="1.25"/>
<path d="M639.984 1.00003L478.266 1.00001L446.24 88.884C442.273 99.7709 431.922 107.016 420.335 107.016V107.016C393.409 107.016 369.331 123.784 359.993 149.039L336 213.93L639.984 213.93" stroke="url(#paint2_linear_18_2838)" stroke-width="1.25"/>
<path d="M509.313 1.00021L398.848 304.5C394.538 316.342 398.088 329.615 407.735 337.724L477.884 396.695L422.595 548.6" stroke="url(#paint3_linear_18_2838)" stroke-width="1.25"/>
</g>
<defs>
<filter id="filter0_d_18_2838" x="0.102539" y="0.375" width="641.132" height="763.772" filterUnits="userSpaceOnUse" color-interpolation-filters="sRGB">
<feFlood flood-opacity="0" result="BackgroundImageFix"/>
<feColorMatrix in="SourceAlpha" type="matrix" values="0 0 0 0 0 0 0 0 0 0 0 0 0 0 0 0 0 0 127 0" result="hardAlpha"/>
<feOffset dx="1.25" dy="1.25"/>
<feComposite in2="hardAlpha" operator="out"/>
<feColorMatrix type="matrix" values="0 0 0 0 1 0 0 0 0 1 0 0 0 0 1 0 0 0 1 0"/>
<feBlend mode="normal" in2="BackgroundImageFix" result="effect1_dropShadow_18_2838"/>
<feBlend mode="normal" in="SourceGraphic" in2="effect1_dropShadow_18_2838" result="shape"/>
</filter>
<linearGradient id="paint0_linear_18_2838" x1="292.992" y1="546.92" x2="292.992" y2="759.849" gradientUnits="userSpaceOnUse">
<stop stop-color="#E5E5E5"/>
<stop offset="1" stop-color="#DCDCDC"/>
</linearGradient>
<linearGradient id="paint1_linear_18_2838" x1="419.844" y1="554.845" x2="235.871" y2="487.885" gradientUnits="userSpaceOnUse">
<stop stop-color="#E5E5E5"/>
<stop offset="1" stop-color="#DCDCDC"/>
</linearGradient>
<linearGradient id="paint2_linear_18_2838" x1="487.992" y1="1.00001" x2="487.992" y2="213.93" gradientUnits="userSpaceOnUse">
<stop stop-color="#E5E5E5"/>
<stop offset="1" stop-color="#DCDCDC"/>
</linearGradient>
<linearGradient id="paint3_linear_18_2838" x1="515.665" y1="292.893" x2="416.244" y2="256.707" gradientUnits="userSpaceOnUse">
<stop stop-color="#E5E5E5"/>
<stop offset="1" stop-color="#DCDCDC"/>
</linearGradient>
</defs>
</svg>
