<svg width="47" height="12" viewBox="0 0 47 12" fill="none" xmlns="http://www.w3.org/2000/svg">
<g clip-path="url(#clip0_19_4690)">
<path d="M5.3672 1.11812H6.37087C6.9821 1.02808 7.60631 1.10725 8.17571 1.34703C8.89006 1.77681 9.40819 2.46871 9.61959 3.27513C9.76926 3.69773 9.76926 3.69773 10.1302 3.54806H10.412V0.202495H0.965146V0.79237H1.35253C1.52087 0.791204 1.68733 0.827767 1.83968 0.899374C1.99204 0.970981 2.12641 1.07581 2.23294 1.20616C2.59391 1.78723 2.65553 2.43874 2.65553 5.82832C2.65553 9.4292 2.5763 10.3096 2.23294 10.7586C2.14817 10.8741 2.03842 10.9688 1.91189 11.0359C1.78536 11.103 1.64531 11.1406 1.5022 11.146C0.965146 11.2428 0.965146 11.234 0.965146 11.4718C0.935446 11.5512 0.935446 11.6388 0.965146 11.7183H6.92553C6.96497 11.6405 6.98553 11.5545 6.98553 11.4674C6.98553 11.3802 6.96497 11.2942 6.92553 11.2164C6.78117 11.1763 6.63403 11.1468 6.48532 11.1284C6.32445 11.1093 6.16544 11.0769 6.0099 11.0315C5.78717 10.8689 5.61073 10.651 5.49801 10.3993C5.38529 10.1477 5.34021 9.87092 5.3672 9.59648C5.27916 9.01541 5.23514 7.95011 5.23514 7.0697V6.37417H5.5873C6.02606 6.36075 6.46456 6.40816 6.89031 6.51504C7.09427 6.64108 7.2679 6.8106 7.39878 7.01149C7.52966 7.21238 7.61458 7.43968 7.64747 7.67718L7.7267 7.95011H8.26375V4.04989H7.77072L7.69149 4.42847C7.65815 4.67134 7.5683 4.90301 7.42915 5.10485C7.29001 5.30669 7.10545 5.47306 6.89031 5.59061C6.68197 5.65261 6.46247 5.66765 6.24761 5.63463H5.23514V4.68379C5.23514 3.69773 5.28796 1.61996 5.32318 1.2942L5.3672 1.11812ZM46.5704 8.09978C46.1543 7.42997 45.5052 6.93767 44.748 6.71754C44.1675 6.53608 43.6309 6.23631 43.172 5.83712C43.0688 5.73726 42.9916 5.61364 42.947 5.47706C42.9025 5.34048 42.8921 5.19509 42.9167 5.05356C42.9174 4.77595 43.0282 4.50997 43.2249 4.31401C43.3581 4.17443 43.5268 4.07367 43.7129 4.0225C43.899 3.97133 44.0955 3.97167 44.2814 4.02348C44.6663 4.13317 45.0143 4.34492 45.2886 4.63631C45.563 4.9277 45.7534 5.28786 45.8397 5.67865C45.9806 6.07484 45.9982 6.07483 46.2535 5.96919L46.412 5.90756V3.71533L46.2975 3.66251C45.4307 3.35809 44.5113 3.2323 43.5946 3.29274C42.8052 3.31274 42.0517 3.6267 41.4817 4.17315C41.2231 4.41516 41.0206 4.71077 40.8883 5.03926C40.756 5.36775 40.6971 5.72119 40.7157 6.07483C40.7206 6.61552 40.9353 7.13317 41.3144 7.51871C41.7333 7.93074 42.2474 8.23313 42.8111 8.39912C44.1757 8.93617 44.5719 9.27953 44.5719 9.90462C44.5778 10.1682 44.4938 10.426 44.3338 10.6356C44.1738 10.8452 43.9473 10.9941 43.6915 11.058C43.3841 11.1255 43.0657 11.1255 42.7583 11.058C42.3558 10.9017 41.9964 10.6517 41.71 10.3286C41.4237 10.0055 41.2186 9.61864 41.1119 9.20029L40.9974 8.91856H40.839C40.7632 8.92419 40.6889 8.94203 40.6189 8.97139H40.5308V11.4718H40.6805C41.2753 11.6696 41.889 11.8053 42.5117 11.8767H43.3922C43.774 11.9048 44.1578 11.8691 44.5279 11.7711C44.9977 11.6844 45.4367 11.4762 45.8012 11.1673C46.1657 10.8584 46.4431 10.4595 46.6057 10.0103C46.7107 9.75934 46.7646 9.48994 46.7641 9.2179C46.7988 8.83465 46.732 8.44903 46.5704 8.09978ZM38.277 3.54806C37.7494 3.32655 37.1809 3.2191 36.6089 3.23276C36.0369 3.24642 35.4742 3.38087 34.9578 3.62729C34.4724 3.86473 34.0422 4.2013 33.6949 4.6153C33.3476 5.02929 33.091 5.51151 32.9417 6.03081C32.7512 6.59731 32.6706 7.19492 32.704 7.79164C32.6977 8.1163 32.7242 8.44077 32.7832 8.76009C32.9254 9.54524 33.3044 10.2681 33.8694 10.8315C34.4344 11.3949 35.1583 11.772 35.9439 11.912C36.4554 11.9764 36.973 11.9764 37.4846 11.912C38.0154 11.8184 38.5235 11.6242 38.9813 11.3397C39.36 11.1274 39.6805 10.825 39.9145 10.4593C39.8995 10.4019 39.8731 10.3481 39.8367 10.3012C39.8004 10.2543 39.755 10.2153 39.7032 10.1864C39.6027 10.2227 39.5079 10.2731 39.4215 10.336C38.9836 10.6246 38.4665 10.7693 37.9424 10.7498C37.5945 10.7733 37.2458 10.7192 36.9215 10.5913C36.5971 10.4634 36.3053 10.2649 36.0671 10.0103C35.8829 9.83914 35.7308 9.63638 35.6181 9.41159C35.3445 8.86427 35.1971 8.26257 35.1867 7.65077V7.30741H40.0642V7.13133C40.075 6.95541 40.075 6.779 40.0642 6.60308C40.0625 5.98143 39.8962 5.37131 39.5823 4.83473C39.2684 4.29815 38.818 3.85422 38.277 3.54806ZM35.8206 6.59428H35.2043V6.07483C35.4068 4.74541 35.9087 3.95304 36.5249 3.95304C37.1412 3.95304 37.4054 4.73661 37.5198 6.17168V6.57667H36.9916L35.8206 6.59428ZM23.1603 3.25752C22.8561 3.24572 22.5537 3.30923 22.2799 3.44241C21.6849 3.73138 21.2042 4.212 20.9153 4.80704L20.8008 5.01834V3.25752H20.7568C20.6511 3.25752 17.3936 3.90902 17.288 3.95304C17.1823 3.99707 17.2175 4.00587 17.2175 4.16434C17.2175 4.32282 17.2175 4.34923 17.288 4.35803L17.6313 4.42847C17.7275 4.43083 17.8219 4.45504 17.9073 4.49928C17.9927 4.54351 18.0669 4.60661 18.1244 4.68379C18.3445 4.97432 18.3885 5.48496 18.3885 7.65957C18.432 8.63856 18.3907 9.61946 18.2652 10.5913C18.2357 10.7379 18.1614 10.8716 18.0526 10.9742C17.9437 11.0767 17.8058 11.1429 17.6577 11.1636L17.3584 11.2252H17.2439V11.4718C17.212 11.5539 17.212 11.645 17.2439 11.7271H22.1654V11.4718C22.1825 11.3875 22.1825 11.3007 22.1654 11.2164C21.8691 11.2049 21.5745 11.1666 21.285 11.102C21.1274 11.0195 20.9985 10.8913 20.9152 10.7341C20.8319 10.577 20.7982 10.3983 20.8184 10.2216C20.748 9.71093 20.7128 8.21423 20.7304 7.0697C20.748 5.92516 20.7304 5.85473 20.8272 5.7755C21.1218 5.54961 21.4864 5.43432 21.8573 5.44974C22.2069 5.45737 22.5502 5.54469 22.861 5.70506C22.9687 5.76489 23.0843 5.80934 23.2043 5.83712C23.2043 5.83712 24.0847 3.70653 24.0847 3.60968C23.9721 3.47876 23.8285 3.378 23.6671 3.31651C23.5057 3.25502 23.3315 3.23475 23.1603 3.25752ZM17.2263 6.95525C17.1956 6.32611 17.015 5.71342 16.6995 5.16823C16.384 4.62304 15.9428 4.16113 15.4127 3.82098C14.7827 3.4811 14.0817 3.29369 13.3661 3.27381C12.6506 3.25394 11.9403 3.40214 11.2924 3.70653C10.3763 4.18959 9.68462 5.01075 9.36427 5.9956C9.03338 7.09824 9.03338 8.27374 9.36427 9.37638C9.53773 9.97899 9.86195 10.5274 10.3063 10.9699C10.8597 11.5099 11.5733 11.8559 12.3401 11.956C12.8322 11.9971 13.327 11.9971 13.8191 11.956C14.0003 11.9284 14.1796 11.8902 14.3562 11.8415C15.0728 11.6411 15.7175 11.2407 16.2149 10.6872C16.7123 10.1337 17.0417 9.44997 17.1647 8.71607C17.2526 8.13342 17.2733 7.54261 17.2263 6.95525ZM13.5638 11.3573C12.6834 11.6214 12.0231 10.7674 11.803 8.97139C11.7222 8.03108 11.7222 7.08557 11.803 6.14527C11.9791 4.70139 12.4281 3.97065 13.1236 3.97065C13.2639 3.96196 13.4043 3.98699 13.533 4.04367C13.6616 4.10034 13.7749 4.187 13.8632 4.2964C14.453 4.88628 14.7436 6.05723 14.7436 7.81805C14.8168 8.81457 14.6602 9.81461 14.2858 10.741C14.1204 11.0112 13.8646 11.214 13.5638 11.3133V11.3573ZM29.4112 3.4336C29.1628 3.40163 28.9113 3.40163 28.6629 3.4336C28.186 3.4332 27.7146 3.53528 27.2806 3.73294L27.0077 3.8474V1.9369C27.0554 1.29215 27.0554 0.644754 27.0077 0C26.9021 0 23.5389 0.6427 23.4861 0.669112C23.4601 0.734113 23.4601 0.806606 23.4861 0.871607C23.4861 1.05649 23.4861 1.04769 23.8822 1.13573C23.9935 1.16068 24.1003 1.20223 24.1992 1.25899C24.371 1.4206 24.4854 1.6339 24.5249 1.86647C24.6252 2.53648 24.6576 3.2149 24.6218 3.89142V11.6214L24.8595 11.6742C25.2117 11.7535 26.2065 11.9208 26.5323 11.956C27.1828 12.0077 27.8363 12.0077 28.4868 11.956C29.2088 11.8822 29.897 11.6129 30.4772 11.1769C31.0574 10.741 31.5077 10.155 31.7795 9.48202C31.9416 9.05012 32.0538 8.60114 32.1141 8.1438C32.1665 7.5243 32.1458 6.90079 32.0525 6.28613C31.958 5.59714 31.6539 4.95387 31.1814 4.44359C30.7089 3.9333 30.0909 3.5807 29.4112 3.4336ZM27.1045 11.2076C27.1045 11.0932 27.0165 7.23698 27.0341 5.69626V4.4901L27.2894 4.42847C27.4617 4.40379 27.6366 4.40379 27.8089 4.42847C27.9994 4.4091 28.191 4.45237 28.3547 4.55172C28.6835 4.77864 28.9566 5.07718 29.1533 5.42488C29.35 5.77257 29.4653 6.16037 29.4905 6.55906C29.5546 7.20016 29.5546 7.84606 29.4905 8.48716C29.4378 9.41895 29.0787 10.3072 28.4692 11.0139C28.2962 11.1783 28.0789 11.2884 27.8441 11.3309C27.6664 11.3618 27.4847 11.3618 27.307 11.3309C27.1398 11.3309 27.1398 11.2781 27.1398 11.2076H27.1045Z" fill="#1C1B18"/>
</g>
<defs>
<clipPath id="clip0_19_4690">
<rect width="45.8166" height="12" fill="white" transform="translate(0.956543)"/>
</clipPath>
</defs>
</svg>
