<svg width="121" height="20" viewBox="0 0 121 20" fill="none" xmlns="http://www.w3.org/2000/svg">
<mask id="mask0_19_4667" style="mask-type:luminance" maskUnits="userSpaceOnUse" x="0" y="0" width="121" height="20">
<path d="M120.957 0.5H0.00537109V19.5H120.957V0.5Z" fill="white"/>
</mask>
<g mask="url(#mask0_19_4667)">
<path d="M30.3843 6.48523H31.9268V8.9924H33.683C34.4293 8.9924 34.9802 9.21567 35.3391 9.66064C35.6964 10.1072 35.875 10.7146 35.875 11.4877V15.0336H34.3324V11.6789C34.3324 11.2729 34.239 11.0749 34.0503 10.8651C33.8617 10.6537 33.658 10.5488 33.3208 10.5488H31.9902L31.9318 15.0336H30.3893V6.48523H30.3843Z" fill="#EB7100"/>
<path d="M29.2624 12.7514C29.2558 13.3554 29.017 13.9086 28.6281 14.3163L28.6247 14.3197C28.209 14.7595 27.623 15.0336 26.977 15.0336H23.5213V13.4823H26.977C27.3677 13.4823 27.7049 13.1625 27.7299 12.7751L27.7182 12.7565C27.7182 12.5857 27.6865 12.4283 27.6214 12.2812C27.593 12.2152 27.5546 12.1509 27.5096 12.0917C27.4545 12.0155 27.386 11.9411 27.3042 11.8734C27.2324 11.8142 27.1473 11.755 27.0521 11.6941C26.9687 11.64 26.8735 11.5875 26.7717 11.5351C26.5613 11.4285 26.2925 11.3152 25.9753 11.1967L25.4311 10.9954C25.2141 10.9176 24.9871 10.8059 24.7533 10.6689C24.5279 10.5336 24.3193 10.3644 24.134 10.1698C23.9887 10.0159 23.8636 9.84332 23.7634 9.65216C23.7367 9.60308 23.7099 9.55405 23.6882 9.5016C23.5814 9.26474 23.5247 8.99745 23.5196 8.7048C23.5179 8.50006 23.5447 8.29709 23.6014 8.10421C23.6983 7.7574 23.8852 7.43597 24.1473 7.16701C24.5697 6.7339 25.1506 6.48523 25.7433 6.48523H28.8501V8.03656H25.7433C25.5613 8.03656 25.3693 8.11946 25.2358 8.25649L25.2324 8.25988C25.149 8.34783 25.0505 8.48992 25.0522 8.68789C25.0538 8.78599 25.0722 8.83507 25.0805 8.85365C25.1206 8.9467 25.1757 9.02622 25.2392 9.09388C25.3293 9.1886 25.4278 9.26813 25.538 9.3324C25.6815 9.4204 25.8234 9.48806 25.9553 9.53714L26.5046 9.73845C26.8751 9.87886 27.1974 10.0159 27.4578 10.1478C27.7716 10.3069 28.0454 10.4811 28.2708 10.6706C28.2775 10.674 28.2808 10.679 28.2875 10.6824C28.416 10.7907 28.5329 10.9108 28.6364 11.0343C28.6581 11.0546 28.6798 11.0783 28.6998 11.0986C28.9836 11.398 29.1606 11.7854 29.2291 12.2524C29.2541 12.408 29.2658 12.5772 29.2641 12.7514H29.2624Z" fill="#EB7100"/>
<path d="M67.4315 9.16545C67.1474 9.08088 66.8356 9.04028 66.495 9.04028C66.0542 9.04028 65.6534 9.12486 65.2864 9.29067C65.1274 9.36342 64.9824 9.44966 64.8419 9.54443V9.18408H63.2979V15.0341H64.8419V12.1294C64.8419 12.0787 64.8438 12.0262 64.8489 11.9771C64.8623 11.8046 64.8939 11.6405 64.9439 11.4882C64.974 11.3901 65.0125 11.2987 65.0574 11.2125C65.0741 11.1803 65.0927 11.1482 65.1126 11.1177C65.1691 11.0298 65.2326 10.952 65.303 10.8792C65.3628 10.8149 65.4282 10.7608 65.5 10.71C65.5867 10.6491 65.6803 10.5967 65.7771 10.5544C65.7855 10.5476 65.7952 10.5459 65.8054 10.5425C65.9388 10.4969 66.0876 10.4732 66.2428 10.4732C66.4097 10.4732 66.5464 10.4867 66.6618 10.5138C66.7753 10.5425 66.8787 10.5797 66.9741 10.6288L66.9889 10.5781C66.9889 10.5781 66.9959 10.5781 66.9973 10.5815L67.0608 10.4106L67.5131 9.19423C67.4867 9.18408 67.4598 9.17393 67.4315 9.16545Z" fill="#EB7100"/>
<path d="M49.0413 10.8079C48.8944 10.434 48.6974 10.1125 48.4467 9.84353C48.1863 9.56442 47.886 9.34786 47.5421 9.19392C47.2163 9.04841 46.8609 8.98413 46.5036 8.98413H43.6973V17.431H45.2098V15.0913H46.5055C46.8609 15.0913 47.2163 15.0271 47.5435 14.8815C47.886 14.7276 48.1881 14.5128 48.4486 14.2319C48.6988 13.9629 48.8958 13.6415 49.0427 13.2676C49.1882 12.8938 49.2614 12.4843 49.2614 12.0394C49.2614 11.5945 49.1882 11.1851 49.0427 10.8112L49.0413 10.8079ZM47.6204 12.6535C47.5352 12.8379 47.4235 12.9935 47.2849 13.1221C47.1464 13.249 46.986 13.3488 46.8058 13.4199C46.6255 13.4909 46.4336 13.5265 46.2348 13.5265H45.2081V10.5473H46.2348C46.435 10.5473 46.6255 10.5828 46.8058 10.6539C46.986 10.7249 47.1464 10.8248 47.2849 10.9516C47.4235 11.0785 47.5352 11.2359 47.6204 11.4203C47.7057 11.6046 47.7474 11.8111 47.7474 12.0377C47.7474 12.2644 47.7057 12.4708 47.6204 12.6552V12.6535Z" fill="#EB7100"/>
<path d="M55.3397 10.8079C55.1928 10.434 54.9959 10.1125 54.7456 9.84353C54.4852 9.56442 54.1849 9.34786 53.8406 9.19392C53.5153 9.04841 53.1598 8.98413 52.8025 8.98413H49.9961V17.431H51.5087V15.0913H52.8039C53.1598 15.0913 53.5153 15.0271 53.8424 14.8815C54.1844 14.7276 54.487 14.5128 54.7475 14.2319C54.9977 13.9629 55.1947 13.6415 55.3416 13.2676C55.4866 12.8938 55.5603 12.4843 55.5603 12.0394C55.5603 11.5945 55.4866 11.1851 55.3416 10.8112L55.3397 10.8079ZM53.9194 12.6535C53.8341 12.8379 53.7224 12.9935 53.5838 13.1221C53.4453 13.249 53.2849 13.3488 53.1047 13.4199C52.9244 13.4909 52.7321 13.5265 52.5338 13.5265H51.5068V10.5473H52.5338C52.7339 10.5473 52.9244 10.5828 53.1047 10.6539C53.2849 10.7249 53.4453 10.8248 53.5838 10.9516C53.7224 11.0785 53.8341 11.2359 53.9194 11.4203C54.0042 11.6046 54.0459 11.8111 54.0459 12.0377C54.0459 12.2644 54.0042 12.4708 53.9194 12.6552V12.6535Z" fill="#EB7100"/>
<path d="M42.5743 10.8551C42.4208 10.4727 42.2087 10.1445 41.9383 9.87046C41.6678 9.5964 41.3456 9.38156 40.9717 9.2259C40.5977 9.07029 40.1887 8.99243 39.7413 8.99243C39.2939 8.99243 38.8832 9.07029 38.5093 9.2259C38.137 9.38156 37.8148 9.5964 37.5427 9.87046C37.2723 10.1445 37.0603 10.4727 36.9067 10.8551C36.7531 11.2374 36.6763 11.6553 36.6763 12.1087C36.6763 12.562 36.7531 12.9799 36.9067 13.3622C37.0603 13.7446 37.2723 14.0728 37.5427 14.3468C37.8132 14.6209 38.1353 14.8358 38.5093 14.9914C38.8816 15.147 39.2922 15.2248 39.7413 15.2248C40.1904 15.2248 40.5994 15.147 40.9717 14.9914C41.344 14.8358 41.6662 14.6209 41.9383 14.3468C42.2087 14.0728 42.4208 13.7446 42.5743 13.3622C42.7279 12.9799 42.8047 12.562 42.8047 12.1087C42.8047 11.6553 42.7279 11.2374 42.5743 10.8551ZM41.1553 12.7786C41.0785 12.9681 40.9817 13.122 40.8548 13.2506C40.7279 13.3792 40.576 13.4806 40.3891 13.5568C40.2004 13.6346 39.9884 13.6735 39.7397 13.6735C39.4909 13.6735 39.2789 13.6346 39.0902 13.5568C38.905 13.479 38.753 13.3792 38.6262 13.2506C38.4993 13.122 38.4024 12.9681 38.3257 12.7786C38.2472 12.5823 38.2088 12.3624 38.2088 12.1087C38.2088 11.8549 38.2472 11.635 38.3257 11.4387C38.4024 11.2493 38.4993 11.0953 38.6262 10.9667C38.753 10.8382 38.905 10.7366 39.0919 10.6605C39.2806 10.5827 39.4926 10.5438 39.7413 10.5438C39.9901 10.5438 40.2021 10.5827 40.3907 10.6605C40.576 10.7383 40.7279 10.8382 40.8548 10.9667C40.9817 11.0953 41.0785 11.2493 41.1553 11.4387C41.2338 11.635 41.2722 11.8549 41.2722 12.1087C41.2722 12.3624 41.2338 12.5807 41.1553 12.7786Z" fill="#EB7100"/>
<path d="M18.3945 19.5002L18.3795 19.49L11.6851 15.0881C12.0807 14.6837 12.4764 14.2929 12.8704 13.9157L15.0489 15.3503L14.0857 12.7957C14.5348 12.3982 14.9838 12.0175 15.4329 11.6555L18.3961 19.4984L18.3945 19.5002Z" fill="#1C1B18"/>
<path d="M17.2956 6.48542C17.142 6.54631 16.9884 6.61059 16.8314 6.67658C15.9934 7.03183 15.1019 7.492 14.1888 8.04013H12.2906L11.2206 5.20644L10.1521 8.04013H2.37094L0.00537109 6.48542H8.95683L11.2206 0.5L13.481 6.48542H17.2956Z" fill="#1C1B18"/>
<path d="M22.3619 6.38232C21.3836 6.7917 15.5506 8.51727 7.75445 17.9031C7.66928 18.0063 6.38552 19.4595 4.84629 19.4595H3.88138H3.54248C4.72775 16.3332 6.01989 12.9547 6.30035 12.2307C6.5892 11.4829 6.38219 10.725 5.77785 10.3224C5.74944 10.3038 5.72275 10.2852 5.69772 10.2682H7.33539C7.95474 10.2682 8.49731 10.7352 8.55407 11.3611C8.55574 11.3899 8.55741 11.4186 8.55908 11.4457C8.56408 11.647 8.53072 11.8619 8.44892 12.0835C8.07829 13.0901 7.58415 14.3961 7.26193 15.2454C7.36379 15.127 7.49735 14.9713 7.6259 14.836C10.933 11.1716 14.6792 8.73216 17.2317 7.65111C19.3769 6.74263 21.2066 6.35864 22.0547 6.35864C22.1782 6.35864 22.28 6.36708 22.3602 6.38232H22.3619Z" fill="#EB7100"/>
<path d="M72.3249 6.48523H71.2132C70.7905 6.48523 70.4119 6.75081 70.2632 7.15176L67.3418 15.0336H69.0977L69.5569 13.6853C69.6987 13.2708 70.0829 12.9934 70.5153 12.9934H73.0446L73.7388 15.0353H75.4951L72.3268 6.4869L72.3249 6.48523ZM70.31 11.5114L71.4166 8.37318L72.5237 11.5114H70.3081H70.31Z" fill="#1C1B18"/>
<path d="M99.1758 9.18359H100.932L102.369 12.9088H102.451L103.9 9.18359H105.643L103.157 15.0336H101.638L99.1758 9.18359Z" fill="#1C1B18"/>
<path d="M92.7992 9.16545C92.5156 9.08088 92.2032 9.04028 91.8626 9.04028C91.4219 9.04028 91.0211 9.12486 90.654 9.29067C90.4955 9.36342 90.35 9.44966 90.2101 9.54443V9.18408H88.6655V15.0341H90.2101V12.1294C90.2101 12.0787 90.2115 12.0262 90.2166 11.9771C90.23 11.8046 90.2615 11.6405 90.3116 11.4882C90.3417 11.3901 90.3802 11.2987 90.4251 11.2125C90.4418 11.1803 90.4603 11.1482 90.4803 11.1177C90.5373 11.0298 90.6007 10.952 90.6707 10.8792C90.731 10.8149 90.7958 10.7608 90.8677 10.71C90.9543 10.6491 91.0479 10.5967 91.1448 10.5544C91.1531 10.5476 91.1633 10.5459 91.1731 10.5425C91.3065 10.4969 91.4553 10.4732 91.6105 10.4732C91.7774 10.4732 91.9145 10.4867 92.0294 10.5138C92.143 10.5425 92.2468 10.5797 92.3418 10.6288L92.3566 10.5781C92.3566 10.5781 92.3636 10.5781 92.365 10.5815L92.4285 10.4106L92.8807 9.19423C92.8543 9.18408 92.8275 9.17393 92.7992 9.16545Z" fill="#1C1B18"/>
<path d="M81.349 10.8079C81.2021 10.434 81.0051 10.1125 80.7549 9.84353C80.4945 9.56442 80.1942 9.34786 79.8499 9.19392C79.5245 9.04841 79.1691 8.98413 78.8118 8.98413H76.0054V17.431H77.518V15.0913H78.8132C79.1691 15.0913 79.5245 15.0271 79.8517 14.8815C80.1942 14.7276 80.4963 14.5128 80.7568 14.2319C81.007 13.9629 81.204 13.6415 81.3509 13.2676C81.4959 12.8938 81.5696 12.4843 81.5696 12.0394C81.5696 11.5945 81.4959 11.1851 81.3509 10.8112L81.349 10.8079ZM79.9286 12.6535C79.8434 12.8379 79.7317 12.9935 79.5931 13.1221C79.4546 13.249 79.2942 13.3488 79.114 13.4199C78.9337 13.4909 78.7414 13.5265 78.543 13.5265H77.5161V10.5473H78.543C78.7432 10.5473 78.9337 10.5828 79.114 10.6539C79.2942 10.7249 79.4546 10.8248 79.5931 10.9516C79.7317 11.0785 79.8434 11.2359 79.9286 11.4203C80.0134 11.6046 80.0556 11.8111 80.0556 12.0377C80.0556 12.2644 80.0134 12.4708 79.9286 12.6552V12.6535Z" fill="#1C1B18"/>
<path d="M87.6483 10.8079C87.5014 10.434 87.3045 10.1125 87.0542 9.84353C86.7938 9.56442 86.493 9.34786 86.1492 9.19392C85.8239 9.04841 85.468 8.98413 85.1107 8.98413H82.3047V17.431H83.8173V15.0913H85.1125C85.468 15.0913 85.8239 15.0271 86.151 14.8815C86.493 14.7276 86.7952 14.5128 87.0556 14.2319C87.3063 13.9629 87.5033 13.6415 87.6502 13.2676C87.7952 12.8938 87.8689 12.4843 87.8689 12.0394C87.8689 11.5945 87.7952 11.1851 87.6502 10.8112L87.6483 10.8079ZM86.2275 12.6535C86.1427 12.8379 86.0305 12.9935 85.892 13.1221C85.7534 13.249 85.5935 13.3488 85.4128 13.4199C85.2325 13.4909 85.0407 13.5265 84.8419 13.5265H83.8154V10.5473H84.8419C85.0425 10.5473 85.2325 10.5828 85.4128 10.6539C85.5935 10.7249 85.7534 10.8248 85.892 10.9516C86.0305 11.0785 86.1427 11.2359 86.2275 11.4203C86.3128 11.6046 86.3545 11.8111 86.3545 12.0377C86.3545 12.2644 86.3128 12.4708 86.2275 12.6552V12.6535Z" fill="#1C1B18"/>
<path d="M112.865 13.2082C113.012 13.5821 113.208 13.9035 113.459 14.1725C113.719 14.4517 114.02 14.6682 114.364 14.8222C114.689 14.9676 115.045 15.0319 115.402 15.0319H118.208V6.48523H116.696V8.92641H115.4C115.045 8.92641 114.689 8.99068 114.362 9.13619C114.02 9.29014 113.718 9.50498 113.457 9.78581C113.207 10.0548 113.01 10.3762 112.863 10.7501C112.718 11.124 112.644 11.5334 112.644 11.9783C112.644 12.4232 112.718 12.8327 112.863 13.2065L112.865 13.2082ZM114.285 11.3625C114.37 11.1781 114.482 11.0225 114.621 10.8939C114.76 10.767 114.92 10.6672 115.1 10.5961C115.28 10.5251 115.472 10.4896 115.671 10.4896H116.698V13.4687H115.671C115.47 13.4687 115.28 13.4332 115.1 13.3622C114.92 13.2911 114.76 13.1913 114.621 13.0644C114.482 12.9375 114.37 12.7802 114.285 12.5958C114.2 12.4114 114.158 12.205 114.158 11.9783C114.158 11.7516 114.2 11.5452 114.285 11.3608V11.3625Z" fill="#1C1B18"/>
<path d="M98.8613 10.855C98.7079 10.4727 98.4956 10.1445 98.2255 9.87042C97.9548 9.59635 97.6328 9.38152 97.2588 9.2259C96.8848 9.07024 96.4756 8.99243 96.0284 8.99243C95.5807 8.99243 95.1702 9.07024 94.7962 9.2259C94.4241 9.38152 94.102 9.59635 93.8295 9.87042C93.5593 10.1445 93.3471 10.4727 93.1937 10.855C93.0398 11.2374 92.9634 11.6552 92.9634 12.1086C92.9634 12.562 93.0398 12.9799 93.1937 13.3622C93.3471 13.7445 93.5593 14.0728 93.8295 14.3468C94.1001 14.6209 94.4222 14.8357 94.7962 14.9913C95.1688 15.147 95.5794 15.2248 96.0284 15.2248C96.4775 15.2248 96.8862 15.147 97.2588 14.9913C97.6309 14.8357 97.953 14.6209 98.2255 14.3468C98.4956 14.0728 98.7079 13.7445 98.8613 13.3622C99.0151 12.9799 99.0916 12.562 99.0916 12.1086C99.0916 11.6552 99.0151 11.2374 98.8613 10.855ZM97.4423 12.7785C97.3654 12.968 97.2685 13.122 97.142 13.2506C97.015 13.3791 96.863 13.4806 96.6763 13.5567C96.4872 13.6346 96.2754 13.6735 96.0266 13.6735C95.7777 13.6735 95.5659 13.6346 95.3773 13.5567C95.1919 13.4789 95.0399 13.3791 94.913 13.2506C94.7865 13.122 94.6896 12.968 94.6127 12.7785C94.5344 12.5823 94.4959 12.3624 94.4959 12.1086C94.4959 11.8549 94.5344 11.6349 94.6127 11.4387C94.6896 11.2492 94.7865 11.0953 94.913 10.9667C95.0399 10.8381 95.1919 10.7366 95.3787 10.6605C95.5678 10.5827 95.7795 10.5438 96.0284 10.5438C96.2773 10.5438 96.489 10.5827 96.6776 10.6605C96.863 10.7383 97.015 10.8381 97.142 10.9667C97.2685 11.0953 97.3654 11.2492 97.4423 11.4387C97.5206 11.6349 97.5591 11.8549 97.5591 12.1086C97.5591 12.3624 97.5206 12.5806 97.4423 12.7785Z" fill="#1C1B18"/>
<path d="M120.956 7.44819C120.956 7.93538 120.579 8.31941 120.086 8.31941C119.594 8.31941 119.211 7.9371 119.211 7.44819C119.211 6.95925 119.601 6.58875 120.086 6.58875C120.572 6.58875 120.956 6.97111 120.956 7.44819ZM119.43 7.44819C119.43 7.83051 119.709 8.13502 120.093 8.13502C120.477 8.13502 120.739 7.83051 120.739 7.45324C120.739 7.07598 120.465 6.76132 120.086 6.76132C119.707 6.76132 119.429 7.07093 119.429 7.44819H119.43ZM119.953 7.89988H119.756V7.04048C119.834 7.02524 119.943 7.01342 120.081 7.01342C120.242 7.01342 120.313 7.04048 120.377 7.07598C120.424 7.11319 120.46 7.1809 120.46 7.26547C120.46 7.36019 120.388 7.43295 120.285 7.46511V7.47526C120.369 7.50737 120.414 7.56998 120.44 7.685C120.467 7.81527 120.482 7.86772 120.502 7.89988H120.29C120.263 7.86772 120.248 7.78992 120.223 7.6901C120.208 7.59537 120.156 7.55306 120.048 7.55306H119.954V7.89988H119.953ZM119.958 7.41265H120.051C120.16 7.41265 120.248 7.37544 120.248 7.28748C120.248 7.20796 120.192 7.1555 120.068 7.1555C120.016 7.1555 119.979 7.1606 119.959 7.16565V7.41265H119.958Z" fill="#1C1B18"/>
<path d="M111.781 13.6446C111.512 14.1234 111.151 14.5108 110.699 14.8069C110.245 15.1029 109.693 15.2501 109.038 15.2501C108.597 15.2501 108.188 15.1723 107.814 15.0166C107.44 14.861 107.115 14.6428 106.839 14.3636C106.564 14.0845 106.349 13.7546 106.195 13.3756C106.041 12.9967 105.964 12.5789 105.964 12.1238C105.964 11.7008 106.04 11.2982 106.19 10.9192C106.34 10.5403 106.549 10.2087 106.816 9.9245C107.083 9.64029 107.402 9.41526 107.768 9.24778C108.135 9.0803 108.539 8.99573 108.979 8.99573C109.446 8.99573 109.859 9.07353 110.222 9.2292C110.584 9.38481 110.888 9.60136 111.131 9.8771C111.375 10.1529 111.561 10.4777 111.688 10.8532C111.814 11.2288 111.876 11.6365 111.876 12.0764V12.2202C111.868 12.2676 111.864 12.3116 111.864 12.3521C111.856 12.3927 111.853 12.4367 111.853 12.4841H107.489C107.521 12.7243 107.585 12.929 107.684 13.1016C107.782 13.2742 107.904 13.418 108.051 13.533C108.197 13.648 108.357 13.7326 108.53 13.7851C108.704 13.8375 108.881 13.8629 109.063 13.8629C109.419 13.8629 109.711 13.7816 109.945 13.6175C110.176 13.4535 110.36 13.2488 110.494 13.0001L111.783 13.648L111.781 13.6446ZM110.373 11.3675C110.365 11.2643 110.332 11.1476 110.273 11.0208C110.215 10.8939 110.128 10.7738 110.013 10.6604C109.899 10.5487 109.757 10.4574 109.587 10.3846C109.417 10.3119 109.215 10.2764 108.978 10.2764C108.648 10.2764 108.355 10.3728 108.103 10.564C107.851 10.7551 107.674 11.0241 107.571 11.3675H110.373Z" fill="#1C1B18"/>
<path d="M62.1371 13.6446C61.8683 14.1234 61.5078 14.5108 61.0555 14.8069C60.6014 15.1029 60.049 15.2501 59.3946 15.2501C58.9535 15.2501 58.5447 15.1723 58.1708 15.0166C57.7968 14.861 57.4715 14.6428 57.1957 14.3636C56.9205 14.0845 56.705 13.7546 56.5516 13.3756C56.3977 12.9967 56.3208 12.5789 56.3208 12.1238C56.3208 11.7008 56.3963 11.2982 56.5465 10.9192C56.6966 10.5403 56.9052 10.2087 57.1726 9.9245C57.4395 9.64029 57.7583 9.41526 58.1239 9.24778C58.4914 9.0803 58.8951 8.99573 59.3358 8.99573C59.802 8.99573 60.2158 9.07353 60.5782 9.2292C60.9401 9.38481 61.2441 9.60136 61.4879 9.8771C61.7316 10.1529 61.917 10.4777 62.044 10.8532C62.1705 11.2288 62.2326 11.6365 62.2326 12.0764V12.2202C62.2242 12.2676 62.2205 12.3116 62.2205 12.3521C62.2122 12.3927 62.2089 12.4367 62.2089 12.4841H57.845C57.8769 12.7243 57.9418 12.929 58.0405 13.1016C58.1388 13.2742 58.2607 13.418 58.4076 13.533C58.5531 13.648 58.7134 13.7326 58.8867 13.7851C59.0605 13.8375 59.2375 13.8629 59.4197 13.8629C59.7751 13.8629 60.067 13.7816 60.3011 13.6175C60.5328 13.4535 60.7167 13.2488 60.8502 13.0001L62.139 13.648L62.1371 13.6446ZM60.7297 11.3675C60.7214 11.2643 60.688 11.1476 60.6296 11.0208C60.5712 10.8939 60.4846 10.7738 60.3692 10.6604C60.2557 10.5487 60.1138 10.4574 59.9438 10.3846C59.7732 10.3119 59.5712 10.2764 59.3344 10.2764C59.004 10.2764 58.7116 10.3728 58.4595 10.564C58.2074 10.7551 58.0303 11.0241 57.927 11.3675H60.7297Z" fill="#EB7100"/>
</g>
</svg>
