<svg width="90" height="14" viewBox="0 0 90 14" fill="none" xmlns="http://www.w3.org/2000/svg">
<path d="M7.71568 1.09258C7.48538 0.631976 7.37022 0.401672 7.2144 0.327768C7.0788 0.263455 6.92148 0.263455 6.78588 0.327768C6.63005 0.401672 6.5149 0.631975 6.2846 1.09258L4.9506 3.76057C4.87949 3.90279 4.84393 3.9739 4.79192 4.02834C4.74587 4.07654 4.69066 4.11504 4.62952 4.14158C4.56045 4.17157 4.48143 4.18035 4.3234 4.19791L1.38092 4.52485C0.828864 4.58619 0.552836 4.61686 0.428092 4.74413C0.319687 4.85473 0.268652 5.00933 0.289902 5.16273C0.314356 5.33926 0.517871 5.52823 0.924903 5.90619L3.18092 8.00107C3.31986 8.13008 3.38933 8.19459 3.42948 8.27276C3.46496 8.34186 3.48386 8.41827 3.48468 8.49594C3.4856 8.58381 3.45422 8.67326 3.39144 8.85217L2.32702 11.8858C2.12253 12.4686 2.02028 12.76 2.08818 12.9329C2.14707 13.0829 2.27467 13.1954 2.4309 13.2349C2.61102 13.2805 2.88723 13.1424 3.43967 12.8662L6.64237 11.2648C6.77355 11.1992 6.83914 11.1665 6.90794 11.1535C6.96887 11.1421 7.0314 11.1421 7.09234 11.1535C7.16114 11.1665 7.22673 11.1992 7.35791 11.2648L10.5606 12.8662C11.113 13.1424 11.3893 13.2805 11.5694 13.2349C11.7256 13.1954 11.8532 13.0829 11.9121 12.9329C11.98 12.76 11.8777 12.4686 11.6733 11.8858L10.6088 8.85217C10.5461 8.67326 10.5147 8.58381 10.5156 8.49594C10.5164 8.41827 10.5353 8.34186 10.5708 8.27276C10.6109 8.19459 10.6804 8.13008 10.8193 8.00107L13.0754 5.90619C13.4824 5.52823 13.6859 5.33926 13.7104 5.16273C13.7316 5.00933 13.6806 4.85473 13.5722 4.74413C13.4474 4.61686 13.1714 4.58619 12.6194 4.52485L9.67687 4.19791C9.51884 4.18035 9.43982 4.17157 9.37075 4.14158C9.30961 4.11504 9.2544 4.07654 9.20835 4.02834C9.15633 3.9739 9.12078 3.90279 9.04967 3.76057L7.71568 1.09258Z" fill="#FFBE00"/>
<path d="M26.7157 1.09258C26.4854 0.631976 26.3702 0.401672 26.2144 0.327768C26.0788 0.263455 25.9215 0.263455 25.7859 0.327768C25.6301 0.401672 25.5149 0.631975 25.2846 1.09258L23.9506 3.76057C23.8795 3.90279 23.8439 3.9739 23.7919 4.02834C23.7459 4.07654 23.6907 4.11504 23.6295 4.14158C23.5604 4.17157 23.4814 4.18035 23.3234 4.19791L20.3809 4.52485C19.8289 4.58619 19.5528 4.61686 19.4281 4.74413C19.3197 4.85473 19.2687 5.00933 19.2899 5.16273C19.3144 5.33926 19.5179 5.52823 19.9249 5.90619L22.1809 8.00107C22.3199 8.13008 22.3893 8.19459 22.4295 8.27276C22.465 8.34186 22.4839 8.41827 22.4847 8.49594C22.4856 8.58381 22.4542 8.67326 22.3914 8.85217L21.327 11.8858C21.1225 12.4686 21.0203 12.76 21.0882 12.9329C21.1471 13.0829 21.2747 13.1954 21.4309 13.2349C21.611 13.2805 21.8872 13.1424 22.4397 12.8662L25.6424 11.2648C25.7735 11.1992 25.8391 11.1665 25.9079 11.1535C25.9689 11.1421 26.0314 11.1421 26.0923 11.1535C26.1611 11.1665 26.2267 11.1992 26.3579 11.2648L29.5606 12.8662C30.113 13.1424 30.3893 13.2805 30.5694 13.2349C30.7256 13.1954 30.8532 13.0829 30.9121 12.9329C30.98 12.76 30.8777 12.4686 30.6733 11.8858L29.6088 8.85217C29.5461 8.67326 29.5147 8.58381 29.5156 8.49594C29.5164 8.41827 29.5353 8.34186 29.5708 8.27276C29.6109 8.19459 29.6804 8.13008 29.8193 8.00107L32.0754 5.90619C32.4824 5.52823 32.6859 5.33926 32.7104 5.16273C32.7316 5.00933 32.6806 4.85473 32.5722 4.74413C32.4474 4.61686 32.1714 4.58619 31.6194 4.52485L28.6769 4.19791C28.5188 4.18035 28.4398 4.17157 28.3708 4.14158C28.3096 4.11504 28.2544 4.07654 28.2084 4.02834C28.1563 3.9739 28.1208 3.90279 28.0497 3.76057L26.7157 1.09258Z" fill="#FFBE00"/>
<path d="M45.7157 1.09258C45.4854 0.631976 45.3702 0.401672 45.2144 0.327768C45.0788 0.263455 44.9215 0.263455 44.7859 0.327768C44.6301 0.401672 44.5149 0.631975 44.2846 1.09258L42.9506 3.76057C42.8795 3.90279 42.8439 3.9739 42.7919 4.02834C42.7459 4.07654 42.6907 4.11504 42.6295 4.14158C42.5604 4.17157 42.4814 4.18035 42.3234 4.19791L39.3809 4.52485C38.8289 4.58619 38.5528 4.61686 38.4281 4.74413C38.3197 4.85473 38.2687 5.00933 38.2899 5.16273C38.3144 5.33926 38.5179 5.52823 38.9249 5.90619L41.1809 8.00107C41.3199 8.13008 41.3893 8.19459 41.4295 8.27276C41.465 8.34186 41.4839 8.41827 41.4847 8.49594C41.4856 8.58381 41.4542 8.67326 41.3914 8.85217L40.327 11.8858C40.1225 12.4686 40.0203 12.76 40.0882 12.9329C40.1471 13.0829 40.2747 13.1954 40.4309 13.2349C40.611 13.2805 40.8872 13.1424 41.4397 12.8662L44.6424 11.2648C44.7735 11.1992 44.8391 11.1665 44.9079 11.1535C44.9689 11.1421 45.0314 11.1421 45.0923 11.1535C45.1611 11.1665 45.2267 11.1992 45.3579 11.2648L48.5606 12.8662C49.113 13.1424 49.3893 13.2805 49.5694 13.2349C49.7256 13.1954 49.8532 13.0829 49.9121 12.9329C49.98 12.76 49.8777 12.4686 49.6733 11.8858L48.6088 8.85217C48.5461 8.67326 48.5147 8.58381 48.5156 8.49594C48.5164 8.41827 48.5353 8.34186 48.5708 8.27276C48.6109 8.19459 48.6804 8.13008 48.8193 8.00107L51.0754 5.90619C51.4824 5.52823 51.6859 5.33926 51.7104 5.16273C51.7316 5.00933 51.6806 4.85473 51.5722 4.74413C51.4474 4.61686 51.1714 4.58619 50.6194 4.52485L47.6769 4.19791C47.5188 4.18035 47.4398 4.17157 47.3708 4.14158C47.3096 4.11504 47.2544 4.07654 47.2084 4.02834C47.1563 3.9739 47.1208 3.90279 47.0497 3.76057L45.7157 1.09258Z" fill="#FFBE00"/>
<path d="M64.7157 1.09258C64.4854 0.631976 64.3702 0.401672 64.2144 0.327768C64.0788 0.263455 63.9215 0.263455 63.7859 0.327768C63.6301 0.401672 63.5149 0.631975 63.2846 1.09258L61.9506 3.76057C61.8795 3.90279 61.8439 3.9739 61.7919 4.02834C61.7459 4.07654 61.6907 4.11504 61.6295 4.14158C61.5604 4.17157 61.4814 4.18035 61.3234 4.19791L58.3809 4.52485C57.8289 4.58619 57.5528 4.61686 57.4281 4.74413C57.3197 4.85473 57.2687 5.00933 57.2899 5.16273C57.3144 5.33926 57.5179 5.52823 57.9249 5.90619L60.1809 8.00107C60.3199 8.13008 60.3893 8.19459 60.4295 8.27276C60.465 8.34186 60.4839 8.41827 60.4847 8.49594C60.4856 8.58381 60.4542 8.67326 60.3914 8.85217L59.327 11.8858C59.1225 12.4686 59.0203 12.76 59.0882 12.9329C59.1471 13.0829 59.2747 13.1954 59.4309 13.2349C59.611 13.2805 59.8872 13.1424 60.4397 12.8662L63.6424 11.2648C63.7735 11.1992 63.8391 11.1665 63.9079 11.1535C63.9689 11.1421 64.0314 11.1421 64.0923 11.1535C64.1611 11.1665 64.2267 11.1992 64.3579 11.2648L67.5606 12.8662C68.113 13.1424 68.3893 13.2805 68.5694 13.2349C68.7256 13.1954 68.8532 13.0829 68.9121 12.9329C68.98 12.76 68.8777 12.4686 68.6733 11.8858L67.6088 8.85217C67.5461 8.67326 67.5147 8.58381 67.5156 8.49594C67.5164 8.41827 67.5353 8.34186 67.5708 8.27276C67.6109 8.19459 67.6804 8.13008 67.8193 8.00107L70.0754 5.90619C70.4824 5.52823 70.6859 5.33926 70.7104 5.16273C70.7316 5.00933 70.6806 4.85473 70.5722 4.74413C70.4474 4.61686 70.1714 4.58619 69.6194 4.52485L66.6769 4.19791C66.5188 4.18035 66.4398 4.17157 66.3708 4.14158C66.3096 4.11504 66.2544 4.07654 66.2084 4.02834C66.1563 3.9739 66.1208 3.90279 66.0497 3.76057L64.7157 1.09258Z" fill="#FFBE00"/>
<path d="M83.0001 1.01704C83.0001 0.621516 83.0001 0.423754 82.939 0.36477C82.8863 0.31397 82.8101 0.295982 82.7403 0.317868C82.6592 0.34328 82.5708 0.520164 82.3939 0.87393L80.9506 3.76057C80.8795 3.90279 80.8439 3.9739 80.7919 4.02834C80.7459 4.07654 80.6907 4.11504 80.6295 4.14158C80.5604 4.17157 80.4814 4.18035 80.3234 4.19791L77.3809 4.52485C76.8289 4.58619 76.5528 4.61686 76.4281 4.74413C76.3197 4.85473 76.2687 5.00933 76.2899 5.16273C76.3144 5.33926 76.5179 5.52823 76.9249 5.90619L79.1809 8.00107C79.3199 8.13008 79.3893 8.19459 79.4295 8.27276C79.465 8.34186 79.4839 8.41827 79.4847 8.49594C79.4856 8.58381 79.4542 8.67326 79.3914 8.85217L78.327 11.8858C78.1225 12.4686 78.0203 12.76 78.0882 12.9329C78.1471 13.0829 78.2747 13.1954 78.4309 13.2349C78.611 13.2805 78.8872 13.1424 79.4397 12.8662L83.0001 11.086V9.81926V8.51906V6.58388V4.14985L83.0001 1.01704Z" fill="#FFBE00"/>
<path d="M82.9999 1.01704C82.9999 0.621516 82.9999 0.423754 83.061 0.36477C83.1137 0.31397 83.1899 0.295982 83.2597 0.317868C83.3408 0.34328 83.4292 0.520164 83.6061 0.87393L85.0494 3.76057C85.1205 3.90279 85.1561 3.9739 85.2081 4.02834C85.2541 4.07654 85.3093 4.11504 85.3705 4.14158C85.4396 4.17157 85.5186 4.18035 85.6766 4.19791L88.6191 4.52485C89.1711 4.58619 89.4472 4.61686 89.5719 4.74413C89.6803 4.85473 89.7313 5.00933 89.7101 5.16273C89.6856 5.33926 89.4821 5.52823 89.0751 5.90619L86.8191 8.00107C86.6801 8.13008 86.6107 8.19459 86.5705 8.27276C86.535 8.34186 86.5161 8.41827 86.5153 8.49594C86.5144 8.58381 86.5458 8.67326 86.6086 8.85217L87.673 11.8858C87.8775 12.4686 87.9797 12.76 87.9118 12.9329C87.8529 13.0829 87.7253 13.1954 87.5691 13.2349C87.389 13.2805 87.1128 13.1424 86.5603 12.8662L82.9999 11.086V9.81926V8.51906V6.58388V4.14985L82.9999 1.01704Z" fill="white"/>
</svg>
