<svg width="84" height="20" viewBox="0 0 84 20" fill="none" xmlns="http://www.w3.org/2000/svg">
<g clip-path="url(#clip0_19_4663)">
<path d="M21.9814 7.0885H30.363V8.62697H27.0674V17.2755H25.2551V8.62697H21.9741V7.0885H21.9814ZM30.005 9.89945H31.5541V11.3229H31.5834C31.6345 11.1216 31.7295 10.9275 31.8683 10.7406C32.0072 10.5537 32.1753 10.3739 32.3726 10.223C32.5699 10.0648 32.7891 9.94258 33.0302 9.84193C33.2714 9.74847 33.5198 9.69815 33.7683 9.69815C33.9583 9.69815 34.0971 9.70534 34.1702 9.71253C34.2433 9.71972 34.3163 9.7341 34.3967 9.74128V11.3085C34.2798 11.2869 34.1629 11.2726 34.0386 11.2582C33.9144 11.2438 33.7975 11.2366 33.6806 11.2366C33.4029 11.2366 33.1398 11.2941 32.8914 11.402C32.6429 11.5098 32.431 11.6752 32.2483 11.8836C32.0656 12.0993 31.9195 12.3581 31.8099 12.6744C31.7003 12.9908 31.6491 13.3502 31.6491 13.76V17.2683H29.9977V9.89945H30.005ZM41.9891 17.2755H40.3669V16.2474H40.3376C40.133 16.6213 39.8334 16.916 39.4315 17.1389C39.0296 17.3617 38.6204 17.4768 38.2039 17.4768C37.2174 17.4768 36.5012 17.2395 36.0628 16.7579C35.6244 16.2762 35.4051 15.5501 35.4051 14.5796V9.89945H37.0566V14.4214C37.0566 15.0684 37.1808 15.5285 37.4366 15.7945C37.685 16.0605 38.0431 16.1971 38.4962 16.1971C38.8469 16.1971 39.1319 16.1468 39.3657 16.039C39.5996 15.9311 39.7896 15.7945 39.9284 15.6148C40.0746 15.4423 40.1769 15.2266 40.2426 14.9822C40.3084 14.7377 40.3376 14.4717 40.3376 14.1842V9.90663H41.9891V17.2755ZM44.8025 14.9103C44.8536 15.3847 45.0363 15.7154 45.3505 15.9095C45.672 16.0965 46.052 16.1971 46.4978 16.1971C46.6512 16.1971 46.8266 16.1827 47.0239 16.1612C47.2212 16.1396 47.4112 16.0893 47.5793 16.0246C47.7546 15.9599 47.8935 15.8592 48.0104 15.7298C48.12 15.6004 48.1712 15.4351 48.1639 15.2266C48.1566 15.0181 48.0762 14.8456 47.93 14.7162C47.7839 14.5796 47.6012 14.4789 47.3747 14.3926C47.1481 14.3136 46.8924 14.2417 46.6001 14.1842C46.3078 14.1266 46.0155 14.0619 45.7159 13.9972C45.409 13.9325 45.1094 13.8463 44.8244 13.7528C44.5394 13.6594 44.2836 13.5299 44.0571 13.3646C43.8306 13.2064 43.6479 12.998 43.5164 12.7463C43.3775 12.4947 43.3117 12.1856 43.3117 11.8118C43.3117 11.4092 43.414 11.0785 43.6113 10.8053C43.8086 10.5321 44.0644 10.3164 44.364 10.1511C44.6709 9.98571 45.0071 9.87069 45.3797 9.7988C45.7524 9.7341 46.1105 9.69815 46.4466 9.69815C46.8339 9.69815 47.2066 9.74129 47.5573 9.82037C47.9081 9.89945 48.2296 10.0288 48.5146 10.2158C48.7996 10.3955 49.0334 10.6327 49.2234 10.9203C49.4134 11.2079 49.5303 11.5601 49.5815 11.9699H47.8569C47.7766 11.5817 47.6012 11.3157 47.3162 11.1863C47.0312 11.0497 46.7024 10.985 46.337 10.985C46.2201 10.985 46.0812 10.9922 45.9205 11.0138C45.7597 11.0353 45.6136 11.0713 45.4674 11.1216C45.3286 11.1719 45.2117 11.251 45.1094 11.3516C45.0144 11.4523 44.9632 11.5817 44.9632 11.747C44.9632 11.9483 45.0363 12.1065 45.1751 12.2287C45.314 12.3509 45.4967 12.4516 45.7232 12.5379C45.9497 12.6169 46.2055 12.6888 46.4978 12.7463C46.7901 12.8038 47.0897 12.8685 47.3966 12.9333C47.6962 12.998 47.9885 13.0842 48.2808 13.1777C48.5731 13.2711 48.8288 13.4005 49.0554 13.5659C49.2819 13.7312 49.4646 13.9325 49.6034 14.177C49.7423 14.4214 49.8153 14.7305 49.8153 15.09C49.8153 15.5285 49.713 15.8952 49.5084 16.2043C49.3038 16.5062 49.0407 16.7579 48.7192 16.9448C48.3977 17.1317 48.0323 17.2755 47.6377 17.3617C47.2431 17.448 46.8485 17.4912 46.4612 17.4912C45.9863 17.4912 45.5478 17.4408 45.1459 17.333C44.744 17.2252 44.3932 17.067 44.1009 16.8585C43.8086 16.6428 43.5748 16.3768 43.4067 16.0605C43.2387 15.7442 43.151 15.3632 43.1364 14.9246H44.8025V14.9103ZM50.2538 9.89945H51.5033V7.6852H53.1548V9.89945H54.6455V11.1144H53.1548V15.054C53.1548 15.2266 53.1621 15.3704 53.1767 15.4998C53.1914 15.622 53.2279 15.7298 53.279 15.8161C53.3302 15.9024 53.4106 15.9671 53.5202 16.0102C53.6298 16.0533 53.7686 16.0749 53.9586 16.0749C54.0756 16.0749 54.1925 16.0749 54.3094 16.0677C54.4263 16.0605 54.5432 16.0461 54.6601 16.0174V17.2755C54.4775 17.297 54.2948 17.3114 54.1267 17.333C53.9513 17.3546 53.7759 17.3617 53.5933 17.3617C53.1548 17.3617 52.8041 17.3186 52.541 17.2395C52.2779 17.1605 52.066 17.0382 51.9199 16.8801C51.7664 16.7219 51.6714 16.5278 51.613 16.2906C51.5618 16.0533 51.5253 15.7801 51.518 15.4782V11.1288H50.2684V9.89945H50.2538ZM55.8147 9.89945H57.3785V10.8987H57.4077C57.6416 10.4674 57.9631 10.1654 58.3796 9.97853C58.7961 9.79161 59.2419 9.69815 59.7315 9.69815C60.3234 9.69815 60.8349 9.7988 61.2733 10.0073C61.7118 10.2086 62.0772 10.489 62.3695 10.8484C62.6618 11.2079 62.8737 11.6248 63.0198 12.0993C63.166 12.5738 63.239 13.0842 63.239 13.6234C63.239 14.1195 63.1733 14.6011 63.0417 15.0612C62.9102 15.5285 62.7129 15.9383 62.4498 16.2978C62.1868 16.6572 61.8506 16.9376 61.4414 17.1533C61.0322 17.3689 60.5572 17.4768 60.0019 17.4768C59.7607 17.4768 59.5196 17.4552 59.2784 17.4121C59.0373 17.3689 58.8034 17.297 58.5842 17.2036C58.365 17.1101 58.1531 16.9879 57.9704 16.8369C57.7804 16.686 57.6269 16.5134 57.4954 16.3193H57.4662V20.0002H55.8147V9.89945ZM61.5876 13.5947C61.5876 13.264 61.5437 12.9404 61.456 12.6241C61.3683 12.3078 61.2368 12.0346 61.0614 11.7902C60.8861 11.5458 60.6668 11.3516 60.4111 11.2079C60.148 11.0641 59.8484 10.985 59.5123 10.985C58.8181 10.985 58.2919 11.2222 57.9412 11.6967C57.5904 12.1712 57.415 12.8038 57.415 13.5947C57.415 13.9685 57.4589 14.3136 57.5539 14.6299C57.6489 14.9462 57.7804 15.2194 57.9704 15.4494C58.1531 15.6795 58.3723 15.8592 58.6281 15.9886C58.8838 16.1252 59.1834 16.1899 59.5196 16.1899C59.8996 16.1899 60.2138 16.1108 60.4768 15.9599C60.7399 15.8089 60.9518 15.6076 61.1199 15.3704C61.288 15.1259 61.4122 14.8527 61.4853 14.5436C61.551 14.2345 61.5876 13.9182 61.5876 13.5947ZM64.5032 7.0885H66.1547V8.62697H64.5032V7.0885ZM64.5032 9.89945H66.1547V17.2755H64.5032V9.89945ZM67.6308 7.0885H69.2823V17.2755H67.6308V7.0885ZM74.3463 17.4768C73.7471 17.4768 73.2136 17.3761 72.746 17.182C72.2783 16.9879 71.8837 16.7147 71.5549 16.3768C71.2333 16.0318 70.9849 15.622 70.8168 15.1475C70.6487 14.673 70.5611 14.1482 70.5611 13.5803C70.5611 13.0195 70.6487 12.5019 70.8168 12.0274C70.9849 11.5529 71.2333 11.1432 71.5549 10.7981C71.8764 10.453 72.2783 10.187 72.746 9.9929C73.2136 9.7988 73.7471 9.69815 74.3463 9.69815C74.9455 9.69815 75.4789 9.7988 75.9466 9.9929C76.4143 10.187 76.8089 10.4602 77.1377 10.7981C77.4592 11.1432 77.7077 11.5529 77.8758 12.0274C78.0438 12.5019 78.1315 13.0195 78.1315 13.5803C78.1315 14.1482 78.0438 14.673 77.8758 15.1475C77.7077 15.622 77.4592 16.0318 77.1377 16.3768C76.8162 16.7219 76.4143 16.9879 75.9466 17.182C75.4789 17.3761 74.9455 17.4768 74.3463 17.4768ZM74.3463 16.1899C74.7117 16.1899 75.0332 16.1108 75.3036 15.9599C75.5739 15.8089 75.7932 15.6076 75.9685 15.3632C76.1439 15.1187 76.2681 14.8384 76.3558 14.5292C76.4362 14.2201 76.4801 13.9038 76.4801 13.5803C76.4801 13.264 76.4362 12.9548 76.3558 12.6385C76.2755 12.3222 76.1439 12.049 75.9685 11.8046C75.7932 11.5601 75.5739 11.366 75.3036 11.2151C75.0332 11.0641 74.7117 10.985 74.3463 10.985C73.9809 10.985 73.6594 11.0641 73.389 11.2151C73.1186 11.366 72.8994 11.5673 72.724 11.8046C72.5487 12.049 72.4244 12.3222 72.3368 12.6385C72.2564 12.9548 72.2125 13.264 72.2125 13.5803C72.2125 13.9038 72.2564 14.2201 72.3368 14.5292C72.4171 14.8384 72.5487 15.1187 72.724 15.3632C72.8994 15.6076 73.1186 15.8089 73.389 15.9599C73.6594 16.118 73.9809 16.1899 74.3463 16.1899ZM78.6138 9.89945H79.8634V7.6852H81.5149V9.89945H83.0056V11.1144H81.5149V15.054C81.5149 15.2266 81.5222 15.3704 81.5368 15.4998C81.5514 15.622 81.5879 15.7298 81.6391 15.8161C81.6902 15.9024 81.7706 15.9671 81.8802 16.0102C81.9898 16.0533 82.1287 16.0749 82.3187 16.0749C82.4356 16.0749 82.5525 16.0749 82.6694 16.0677C82.7863 16.0605 82.9033 16.0461 83.0202 16.0174V17.2755C82.8375 17.297 82.6548 17.3114 82.4867 17.333C82.3114 17.3546 82.136 17.3617 81.9533 17.3617C81.5149 17.3617 81.1641 17.3186 80.901 17.2395C80.638 17.1605 80.4261 17.0382 80.2799 16.8801C80.1265 16.7219 80.0315 16.5278 79.973 16.2906C79.9218 16.0533 79.8853 15.7801 79.878 15.4782V11.1288H78.6284V9.89945H78.6138Z" fill="#1C1B18"/>
<path d="M20.052 7.08847H12.4816L10.1432 0L7.79752 7.08847L0.227051 7.08128L6.35796 11.4666L4.01229 18.5479L10.1432 14.1697L16.2668 18.5479L13.9284 11.4666L20.052 7.08847Z" fill="#00B67A"/>
<path d="M14.4535 13.0698L13.9273 11.4667L10.1421 14.1698L14.4535 13.0698Z" fill="#005128"/>
</g>
<defs>
<clipPath id="clip0_19_4663">
<rect width="82.7783" height="20.0001" fill="white" transform="translate(0.227051)"/>
</clipPath>
</defs>
</svg>
